<?xml version="1.0" encoding="UTF-8"?><svg id="_图层_1" xmlns="http://www.w3.org/2000/svg" viewBox="0 0 45.81 19.09"><defs><style>.cls-1{stroke-width:0px;}</style></defs><path class="cls-1" d="m24.8,2.77l6.37,10.73-12.67-.13s6.29-10.63,6.3-10.6Zm0,0s-6.29,10.61-6.3,10.6c0,0,12.67.13,12.67.13,0,0-6.37-10.75-6.37-10.73ZM0,0l11.32,19.07L22.63,0H0ZM0,0l11.32,19.07L22.63,0H0Zm35.3,17.71c-.2.35-.62,1.02-.82,1.37-.52-.86-1.95-3.28-2.48-4.18,0,0-14.32-.14-14.32-.14l-2.56,4.31h-1.63S24.31.85,24.31.85c.56-.88.39-1.03.98,0,0,0,9.2,15.51,9.2,15.5,0,0,9.7-16.35,9.7-16.35,0,0,1.63,0,1.63,0,0,0-10.51,17.72-10.51,17.72Zm-4.14-4.22s-6.37-10.75-6.37-10.73c0,0-6.29,10.61-6.29,10.61,0,0,12.67.13,12.67.13Zm4.14,4.22c-.2.35-.62,1.02-.82,1.37-.52-.86-1.95-3.28-2.48-4.18,0,0-14.32-.14-14.32-.14l-2.56,4.31h-1.63S24.31.85,24.31.85c.56-.88.39-1.03.98,0,0,0,9.2,15.51,9.2,15.5,0,0,9.7-16.35,9.7-16.35,0,0,1.63,0,1.63,0,0,0-10.51,17.72-10.51,17.72Zm-4.14-4.22s-6.37-10.75-6.37-10.73c0,0-6.29,10.61-6.29,10.61,0,0,12.67.13,12.67.13Z"/></svg>